<?xml version="1.0" encoding="UTF-8" standalone="no"?>
<svg
   xmlns:dc="http://purl.org/dc/elements/1.1/"
   xmlns:cc="http://creativecommons.org/ns#"
   xmlns:rdf="http://www.w3.org/1999/02/22-rdf-syntax-ns#"
   xmlns:svg="http://www.w3.org/2000/svg"
   xmlns="http://www.w3.org/2000/svg"
   id="svg8"
   version="1.1"
   viewBox="0 0 200 200"
   height="200mm"
   width="200mm">
  <defs
     id="defs2" />
  <metadata
     id="metadata5">
    <rdf:RDF>
      <cc:Work
         rdf:about="">
        <dc:format>image/svg+xml</dc:format>
        <dc:type
           rdf:resource="http://purl.org/dc/dcmitype/StillImage" />
        <dc:title></dc:title>
      </cc:Work>
    </rdf:RDF>
  </metadata>
  <g
     transform="translate(0,-97)"
     id="layer1">
    <path
       id="path815"
       d="M 100,97 A 99.999997,100 0 0 0 0,197 99.999997,100 0 0 0 100,297 99.999997,100 0 0 0 200,197 99.999997,100 0 0 0 100,97 Z m -3.202478,35.23763 h 6.404948 c 5.91398,0 10.67512,4.76116 10.67512,10.67513 v 40.20898 h 40.20964 c 5.91397,0 10.67514,4.76117 10.67514,10.67513 v 6.40495 c 0,5.91397 -4.76117,10.67513 -10.67514,10.67513 h -40.20964 v 40.20964 c 0,5.91397 -4.76114,10.67513 -10.67512,10.67513 h -6.404948 c -5.91397,0 -10.67513,-4.76116 -10.67513,-10.67513 V 210.87695 H 45.913409 c -5.91397,0 -10.675129,-4.76116 -10.675129,-10.67513 v -6.40495 c 0,-5.91396 4.761159,-10.67513 10.675129,-10.67513 h 40.208983 v -40.20898 c 0,-5.91397 4.76116,-10.67513 10.67513,-10.67513 z"
       style="opacity:1;fill:#000000;fill-opacity:1;stroke:none;stroke-width:0.2519685;stroke-linecap:round;stroke-miterlimit:4;stroke-dasharray:none;stroke-opacity:1" />
  </g>
</svg>
