<?xml version="1.0" encoding="UTF-8" standalone="no"?>
<svg
   xmlns:dc="http://purl.org/dc/elements/1.1/"
   xmlns:cc="http://creativecommons.org/ns#"
   xmlns:rdf="http://www.w3.org/1999/02/22-rdf-syntax-ns#"
   xmlns:svg="http://www.w3.org/2000/svg"
   xmlns="http://www.w3.org/2000/svg"
   id="svg8"
   version="1.1"
   viewBox="0 0 30 30"
   height="30mm"
   width="30mm">
  <defs
     id="defs2" />
  <metadata
     id="metadata5">
    <rdf:RDF>
      <cc:Work
         rdf:about="">
        <dc:format>image/svg+xml</dc:format>
        <dc:type
           rdf:resource="http://purl.org/dc/dcmitype/StillImage" />
        <dc:title></dc:title>
      </cc:Work>
    </rdf:RDF>
  </metadata>
  <g
     transform="translate(0,-267)"
     id="layer1">
    <path
       id="path4529"
       d="m 10.867112,295.94929 c -5.1573689,-1.68198 -8.762443,-5.90049 -9.6949901,-11.34466 -1.56298468,-9.12465 7.0806827,-17.62027 16.1566591,-15.87994 11.374471,2.18108 15.57919,16.11906 7.221164,23.93701 -2.657057,2.48536 -5.276147,3.55144 -9.045055,3.68173 -1.927135,0.0666 -3.68238,-0.0826 -4.637778,-0.39414 z m 9.67841,-2.09867 c 1.267636,-0.6111 2.388124,-1.32824 2.489972,-1.59365 0.228603,-0.59574 -0.886232,-2.3654 -1.490129,-2.3654 -0.242895,0 -0.827156,0.41037 -1.298357,0.91195 -0.562339,0.59857 -1.251738,0.91194 -2.006281,0.91194 -0.754543,0 -1.443941,-0.31337 -2.00628,-0.91194 -0.471202,-0.50158 -1.033303,-0.91148 -1.249116,-0.91089 -0.215813,5.7e-4 -0.802762,0.78029 -1.304332,1.73269 -0.778478,1.4782 -1.072108,1.73164 -2.006281,1.73164 -0.934174,0 -1.227804,-0.25344 -2.0062821,-1.73164 -0.5015701,-0.9524 -1.0982543,-1.73211 -1.3259654,-1.73269 -0.5578999,-0.002 -1.6899712,1.7716 -1.4802002,2.31826 0.2452024,0.63898 3.8618247,2.38305 5.7425977,2.76927 2.511951,0.51585 5.371204,0.10912 7.940654,-1.12954 z m -7.766475,-3.25166 c 0.627294,-1.39109 1.459221,-2.16651 2.32439,-2.16651 0.206837,0 0.936937,0.49246 1.622446,1.09434 0.685508,0.60188 1.389391,1.09433 1.564184,1.09433 0.174796,0 0.782604,-0.49245 1.350685,-1.09433 1.34796,-1.42817 2.251425,-1.38116 3.692505,0.19214 l 1.178361,1.28646 0.993333,-1.43337 c 2.122629,-3.06296 2.655515,-7.85063 1.282314,-11.52084 -1.00421,-2.684 -3.800951,-5.71308 -6.470893,-7.00849 -1.794836,-0.87082 -2.519793,-1.0072 -5.358649,-1.00813 -2.901461,-5.7e-4 -3.53045,0.12289 -5.4121444,1.06559 -2.7186151,1.36199 -5.4217361,4.28988 -6.4173985,6.95103 -1.379544,3.68716 -0.8513204,8.23341 1.3416583,11.54722 l 0.9323168,1.40882 1.1791985,-1.28738 c 1.7178825,-1.8755 2.8604222,-1.62369 3.9890343,0.87912 0.367379,0.81471 0.864327,1.48128 1.10433,1.48128 0.240001,0 0.73695,-0.66657 1.104329,-1.48128 z m 0.3367,-3.40916 c -1.89348,-0.82475 -3.082733,-2.57344 -3.08117,-4.53059 0.0016,-1.87394 1.081709,-4.07577 1.999557,-4.07577 0.738419,0 0.697104,0.42972 -0.208337,2.16684 -0.955427,1.83303 -0.693347,3.30195 0.815671,4.5717 3.025292,2.54561 7.448652,-0.97354 5.634137,-4.48243 -0.71288,-1.37855 -1.110505,-1.6319 -2.94832,-1.87855 -0.996464,-0.13372 -1.492967,-0.39615 -1.577055,-0.83354 -0.0956,-0.49726 0.127649,-0.63835 1.010073,-0.63835 2.963863,0 5.118048,2.12475 5.120562,5.05061 0.0018,2.07696 -0.910998,3.55089 -2.750479,4.44137 -1.730095,0.83753 -2.481332,0.87658 -4.014639,0.20871 z m 7.711201,-0.54502 c -0.450163,-0.49743 -0.507847,-0.76728 -0.204141,-0.95497 0.547974,-0.33867 2.177649,0.53151 2.177649,1.16279 0,0.72007 -1.253197,0.58812 -1.973508,-0.20782 z m -13.4656087,0.0885 c -0.1320114,-0.13201 -0.057199,-0.46032 0.1662586,-0.72956 0.5385621,-0.64893 2.140838,-0.63501 2.140838,0.0186 0,0.75606 -1.7291434,1.28891 -2.3070966,0.71095 z m 16.9110647,-1.55989 c -0.523979,-0.97907 -0.471789,-1.84787 0.111003,-1.84787 0.565571,0 1.44514,1.71579 1.135993,2.21601 -0.334518,0.54125 -0.840197,0.39197 -1.246996,-0.36814 z M 4.25456,284.74166 c -0.3641003,-0.58301 -0.3792752,-0.87388 -0.061855,-1.18552 0.3144356,-0.30872 0.5982584,-0.19557 1.1242846,0.44819 0.3870136,0.47364 0.7036643,1.00713 0.7036643,1.18553 0,0.63789 -1.2927039,0.30982 -1.7660939,-0.4482 z m 2.1308713,-2.80549 c 0,-0.36292 0.2351756,-0.97848 0.5226119,-1.36793 0.7582939,-1.0274 1.4582316,-0.25644 0.9590867,1.05641 -0.4168328,1.09635 -1.4816986,1.32023 -1.4816986,0.31152 z m 15.8579447,-0.0858 c -0.265047,-0.42884 0.757092,-2.17262 1.273519,-2.17262 0.680036,0 0.756039,0.73483 0.168715,1.63119 -0.649057,0.99059 -1.067546,1.14769 -1.442234,0.54143 z M 4.8351239,278.70058 c -0.3511,-0.0938 -0.6383609,-0.41523 -0.6383609,-0.71417 0,-0.39347 0.3272925,-0.51197 1.1855281,-0.42922 0.7544933,0.0727 1.1855308,0.31142 1.1855308,0.65648 0,0.57586 -0.6824187,0.76764 -1.732698,0.48691 z m 4.4813683,-0.82272 c -0.5239787,-0.97906 -0.4717885,-1.84787 0.1110038,-1.84787 0.5655722,0 1.445142,1.71579 1.135993,2.21601 -0.334519,0.54126 -0.8401966,0.39197 -1.2469968,-0.36814 z m 10.4223758,0.12858 c -0.363266,-0.94666 -0.253013,-1.61167 0.2672,-1.61167 0.538163,0 1.416689,1.62089 1.067687,1.96988 -0.409339,0.40935 -1.112785,0.22058 -1.334887,-0.35821 z m 3.222504,-1.03995 c -0.515818,-0.38071 -0.599341,-0.63306 -0.307603,-0.9294 0.506685,-0.51468 2.335359,0.2397 2.335359,0.9634 0,0.64321 -1.136022,0.62416 -2.027756,-0.034 z m -8.389901,-1.09284 c -0.645506,-0.47506 -0.65355,-0.54226 -0.09103,-0.7604 0.942688,-0.36558 1.91415,-0.0588 2.050147,0.64734 0.151975,0.78915 -0.953755,0.85296 -1.959117,0.11306 z m -5.5092409,-1.87226 c -0.2651794,-0.69104 -0.1876079,-0.76805 1.0990359,-1.09098 0.871099,-0.21862 1.017979,-0.15654 0.911198,0.38516 -0.177547,0.90069 -1.7267279,1.44463 -2.0102339,0.70582 z m 9.1550539,0.16678 c -0.136888,-0.22149 0.175101,-0.82671 0.693312,-1.34492 0.838012,-0.838 0.968887,-0.87265 1.183545,-0.31325 0.144654,0.37695 -0.01825,0.91579 -0.406596,1.3449 -0.735806,0.81306 -1.111851,0.89319 -1.470261,0.31327 z m -4.308454,-1.96243 c -0.422357,-0.31983 -0.595108,-0.74999 -0.45149,-1.12425 0.208632,-0.54369 0.316812,-0.5504 1.048893,-0.0651 0.926277,0.614 1.298123,1.73654 0.56943,1.71903 -0.265495,-0.007 -0.79057,-0.24472 -1.166833,-0.52964 z"
       style="fill:#ffffff;fill-opacity:1;stroke-width:0.36477834" />
  </g>
</svg>
