<?xml version="1.0" encoding="UTF-8" standalone="no"?>
<svg
   xmlns:dc="http://purl.org/dc/elements/1.1/"
   xmlns:cc="http://creativecommons.org/ns#"
   xmlns:rdf="http://www.w3.org/1999/02/22-rdf-syntax-ns#"
   xmlns:svg="http://www.w3.org/2000/svg"
   xmlns="http://www.w3.org/2000/svg"
   id="svg8"
   version="1.1"
   viewBox="0 0 210 74"
   height="74mm"
   width="210mm">
  <defs
     id="defs2" />
  <metadata
     id="metadata5">
    <rdf:RDF>
      <cc:Work
         rdf:about="">
        <dc:format>image/svg+xml</dc:format>
        <dc:type
           rdf:resource="http://purl.org/dc/dcmitype/StillImage" />
        <dc:title></dc:title>
      </cc:Work>
    </rdf:RDF>
  </metadata>
  <g
     transform="translate(0,-223)"
     id="layer1">
    <path
       id="path826"
       d="m 141.51274,294.84 c 0.9301,-0.77193 0.92818,-3.14076 -0.003,-3.91372 -0.39774,-0.33012 -1.78403,-0.86983 -3.08059,-1.19938 -1.81637,-0.46165 -2.39353,-0.84661 -2.51481,-1.67738 -0.23267,-1.59391 1.97988,-2.33514 3.98479,-1.33495 1.83685,0.91634 1.84091,0.9164 1.84091,0.0277 0,-0.86504 -3.43563,-1.89693 -4.75295,-1.42756 -3.96811,1.41391 -3.26903,4.5161 1.24631,5.53063 1.1809,0.26534 2.37154,0.70687 2.64587,0.9812 0.73602,0.73604 0.0834,1.96988 -1.39922,2.64542 -1.10976,0.50564 -1.58921,0.43577 -3.24925,-0.47351 -1.69502,-0.92846 -1.92674,-0.95958 -1.78819,-0.24015 0.36777,1.90972 5.18466,2.64666 7.07031,1.0817 z m 23.14819,-0.4782 c 2.56272,-2.40755 1.69233,-7.33057 -1.5344,-8.67877 -6.05007,-2.52788 -10.08345,6.32154 -4.38177,9.61381 1.41264,0.81568 4.58657,0.31406 5.91617,-0.93504 z m -5.2617,-0.0659 c -0.80339,-0.29417 -1.52431,-1.07665 -1.84836,-2.00622 -0.7599,-2.17986 -0.66603,-3.04414 0.49032,-4.5142 2.16495,-2.7523 6.86476,-1.12502 6.86476,2.3769 0,2.34467 -0.40894,3.1562 -2.00684,3.9825 -1.58122,0.81768 -1.69251,0.82281 -3.49988,0.16102 z m 32.61597,0.51966 c 0,-0.24885 -1.44172,-0.45246 -3.20382,-0.45246 h -3.20382 v -1.72514 -1.72513 h 2.95738 c 1.64298,0 2.95737,-0.21906 2.95737,-0.4929 0,-0.27382 -1.31439,-0.49288 -2.95737,-0.49288 h -2.95738 v -1.72514 -1.72514 h 2.95738 c 1.64298,0 2.95737,-0.21907 2.95737,-0.49289 0,-0.28166 -1.47869,-0.4929 -3.45027,-0.4929 h -3.45027 v 4.8468 c 0,2.66575 0.0914,4.93923 0.20328,5.05218 0.4044,0.40858 7.19015,-0.13354 7.19015,-0.5744 z m 11.60238,0.0243 c 0.9205,-0.76393 0.93179,-3.13776 0.0185,-3.8957 -0.38583,-0.3202 -1.76951,-0.84642 -3.07486,-1.16936 -2.41141,-0.59659 -3.32727,-1.81352 -2.20755,-2.93323 0.65752,-0.65751 3.48967,-0.59178 4.17842,0.097 0.7314,0.73142 1.31258,0.65297 1.31258,-0.17717 0,-0.91116 -3.11242,-1.93297 -4.55156,-1.49428 -3.96542,1.20878 -3.56012,4.66439 0.64073,5.46279 3.56958,0.67843 4.40656,1.97685 2.20443,3.41974 -1.01041,0.66205 -1.50535,0.6988 -2.95738,0.21959 -0.95913,-0.31654 -1.74388,-0.8245 -1.74388,-1.12877 0,-0.40625 -0.14575,-0.4075 -0.54852,-0.004 -1.91389,1.91388 4.51048,3.44541 6.72904,1.60415 z m -52.5127,-4.41996 v -4.92895 h -2.46448 c -1.35547,0 -2.46448,0.22181 -2.46448,0.4929 0,0.2711 0.83177,0.49239 1.84836,0.49176 l 1.84835,-9.7e-4 -0.15819,4.43719 c -0.13449,3.77179 -0.0421,4.43718 0.61611,4.43718 0.65221,-1.4e-4 0.77433,-0.77744 0.77433,-4.9291 z m 21.1945,3.20383 c 0,-1.5816 0.12094,-1.72514 1.45361,-1.72514 1.08202,0 1.78996,0.44099 2.76943,1.72514 0.7237,0.94882 1.63348,1.72513 2.02174,1.72513 0.49544,0 0.31052,-0.51841 -0.62013,-1.73856 -0.72933,-0.95619 -1.23968,-1.78795 -1.1341,-1.84835 0.10555,-0.0604 0.63557,-0.35398 1.17775,-0.65242 1.26799,-0.69794 1.52376,-2.88221 0.51735,-4.41819 -0.6994,-1.06741 -1.14019,-1.20039 -3.97898,-1.20039 h -3.19246 v 4.92895 c 0,2.95738 0.19716,4.92896 0.4929,4.92896 0.27109,0 0.49289,-0.77631 0.49289,-1.72513 z m 0.32861,-3.03953 c -0.18074,-0.18071 -0.32861,-1.17883 -0.32861,-2.21802 v -1.88944 h 2.44715 c 1.91495,0 2.55808,0.20734 2.95737,0.95339 0.6932,1.29526 0.64396,1.79985 -0.26432,2.70811 -0.76693,0.76693 -4.17478,1.08279 -4.81159,0.44596 z M 57.399322,271.3276 c 2.434546,-1.39297 4.281856,-3.08629 5.885168,-5.39456 1.923111,-2.76874 0.317628,-2.1976 -2.926861,1.0412 -2.586207,2.58168 -3.663545,3.29278 -6.025053,3.97682 -3.095011,0.89651 -5.570264,0.70942 -7.520593,-0.56849 -1.588898,-1.04108 -2.575731,-4.50163 -2.965407,-10.3989 L 43.512739,254.9315 H 53.756515 64.00029 l -0.274067,-2.65547 c -0.478155,-4.63283 -3.073914,-8.50169 -6.989393,-10.41736 -3.725233,-1.82259 -8.689234,-1.81106 -12.253407,0.0285 -3.54234,1.82825 -5.067473,3.4019 -6.895202,7.11454 -1.418779,2.88196 -1.574445,3.63879 -1.574445,7.65494 0,4.04181 0.150759,4.76301 1.619112,7.74568 2.248111,4.56656 5.419651,7.00745 10.456833,8.04784 3.620451,0.74776 6.687032,0.37799 9.309601,-1.12256 z M 43.78126,250.02901 c 0.195163,-2.84746 0.570444,-4.43165 1.34773,-5.68934 1.387343,-2.24476 2.330179,-2.71635 5.430719,-2.71635 3.638025,0 5.089356,1.54687 5.886728,6.27425 1.025689,6.08092 1.34745,5.77915 -6.33336,5.93971 l -6.602306,0.13803 z m 44.232998,22.0345 c 2.084949,-0.62948 4.576755,-2.60767 6.759981,-5.3666 2.969221,-3.7522 1.742346,-4.03657 -1.671092,-0.38731 -3.504421,3.7465 -5.950692,5.00524 -9.797631,5.04144 -2.825725,0.0266 -3.336944,-0.12222 -4.610048,-1.34194 -1.713884,-1.64201 -2.316075,-3.87048 -2.775742,-10.27187 l -0.345088,-4.80573 h 10.080824 c 5.544451,0 10.197384,-0.11656 10.339848,-0.25902 0.443456,-0.44347 -0.622661,-5.27171 -1.569892,-7.10968 -2.413835,-4.6837 -6.328461,-7.0066 -11.866218,-7.04127 -7.802276,-0.0489 -13.944886,6.10325 -14.631249,14.65382 -0.960984,11.97184 8.902369,20.26475 20.086307,16.88816 z m -12.15338,-18.8812 c -0.560473,-1.46056 0.250703,-6.94256 1.287255,-8.69938 1.216565,-2.06193 2.791912,-2.85961 5.647443,-2.85961 4.002899,0 5.745359,2.60076 5.884105,8.78247 l 0.07392,3.29347 -6.294204,0.13802 c -5.411726,0.11867 -6.336881,0.0267 -6.598514,-0.65497 z m 75.294872,18.98683 c 1.00633,-0.27098 2.94597,-1.26055 4.31029,-2.19903 2.26932,-1.56103 2.50555,-1.62765 2.77384,-0.7824 0.4737,1.49253 2.61807,3.34383 4.25157,3.67053 2.03523,0.40706 5.40577,-0.49605 7.01631,-1.87996 2.25695,-1.93932 1.53286,-3.08954 -0.79314,-1.25992 -0.68928,0.54218 -1.56205,0.9858 -1.93947,0.9858 -1.72157,0 -1.8692,-1.01084 -1.8692,-12.79833 0,-13.46147 -0.18609,-14.1979 -4.09656,-16.21146 -1.82921,-0.94191 -3.07488,-1.17162 -6.59593,-1.21639 -9.1019,-0.11573 -14.92645,4.07348 -12.78605,9.19617 0.91593,2.19212 2.37442,2.97665 4.90322,2.63747 3.16442,-0.42443 4.0969,-2.76874 2.64267,-6.64373 -0.76427,-2.03652 -0.84881,-2.74003 -0.38503,-3.20382 0.7588,-0.75879 7.20065,-0.78993 7.95213,-0.0384 0.87396,0.87396 1.44046,4.0413 1.45326,8.12525 l 0.0117,3.75216 -4.08613,0.33155 c -7.8392,0.63607 -11.97713,2.44915 -14.06405,6.16232 -2.84516,5.06228 -0.24824,10.67261 5.58135,12.05777 1.1177,0.26558 3.04486,0.0347 5.71916,-0.68553 z m -0.60634,-2.34165 c -0.71213,-0.0896 -1.80704,-0.70817 -2.43313,-1.37459 -0.94892,-1.01008 -1.13348,-1.72763 -1.10916,-4.31239 0.0522,-5.54535 2.09505,-7.64352 7.89542,-8.10911 l 3.10287,-0.24908 v 5.02885 c 0,2.76585 -0.2128,5.42645 -0.47288,5.91242 -1.00283,1.8738 -4.47902,3.41892 -6.98312,3.1039 z m -118.353438,1.73923 c -0.120847,-0.36635 -1.28644,-0.67446 -2.875222,-0.76002 l -2.671988,-0.1439 0.151885,-23.14541 0.151883,-23.14541 H 14.355034 1.7575408 l -0.00489,1.84836 c -0.00293,1.01658 -0.1460256,4.34364 -0.3188699,7.39343 -0.3020017,5.32892 -0.275658,5.54507 0.6759068,5.54507 0.7994977,0 1.0908412,-0.4983 1.5129901,-2.5877 0.738149,-3.6534 1.3051592,-4.94578 3.0335164,-6.91427 2.0026667,-2.28091 4.0417838,-3.18722 8.3208078,-3.69828 l 3.538528,-0.42264 v 22.78317 22.78317 l -2.710921,-0.25722 c -2.27496,-0.21586 -2.710932,-0.12897 -2.710932,0.54028 0,0.70757 1.08828,0.79749 9.652536,0.79749 7.501833,0 9.607256,-0.13728 9.449301,-0.61612 z m 83.420428,0.15157 c 0,-0.25551 -0.94267,-0.53277 -2.09481,-0.61612 l -2.09481,-0.15156 -0.13196,-11.94479 -0.13197,-11.94478 2.0107,-1.95131 c 3.3037,-3.20614 7.48729,-3.83694 9.64538,-1.45433 0.85491,0.94385 0.94206,2.10053 1.0761,14.28432 l 0.14584,13.25732 h -1.9942 c -1.09682,0 -1.99421,0.22182 -1.99421,0.49291 0,0.30732 2.86553,0.49289 7.61078,0.49289 4.54218,0 7.73362,-0.19873 7.91542,-0.49289 0.18776,-0.30379 -0.65207,-0.49291 -2.18893,-0.49291 h -2.49357 v -12.86245 c 0,-14.51475 -0.0483,-14.73607 -3.65232,-16.77057 -1.5829,-0.89353 -2.75718,-1.13535 -5.46625,-1.12556 -3.593,0.013 -6.05287,0.90433 -8.57787,3.10837 -1.65939,1.44845 -2.01953,1.30314 -2.01842,-0.8145 l 9.7e-4,-1.84836 -5.66927,0.15307 c -3.11809,0.0841 -5.669257,0.36144 -5.669257,0.61612 0,0.25467 1.001467,0.46305 2.225477,0.46305 h 2.22547 l -0.13066,14.41721 -0.13067,14.41719 -2.09481,0.15156 c -1.15215,0.0834 -2.094807,0.36061 -2.094807,0.61612 0,0.27145 3.278117,0.46455 7.886327,0.46455 4.60821,0 7.88633,-0.1931 7.88633,-0.46455 z m 72.45564,-0.0283 c 0,-0.2711 -0.88721,-0.4929 -1.97158,-0.4929 h -1.97158 v -12.284 -12.28398 l 2.06863,-1.77067 c 2.57478,-2.20392 5.25019,-3.00594 7.52399,-2.25553 2.75462,0.90911 2.97622,2.10228 2.97622,16.02533 v 12.32239 l -2.09481,0.15156 c -1.15216,0.0834 -2.09481,0.36062 -2.09481,0.61612 0,0.27146 3.27812,0.46456 7.88633,0.46456 4.92896,0 7.88633,-0.18484 7.88633,-0.4929 0,-0.27109 -0.98793,-0.4929 -2.1954,-0.4929 h -2.19541 l -0.14585,-13.26931 -0.14585,-13.26933 -1.23225,-1.31793 c -2.16257,-2.31296 -3.85009,-2.91243 -8.16983,-2.9022 -4.21451,0.01 -5.32943,0.46744 -8.71183,3.57458 l -1.35546,1.24516 v -10.45866 -10.45867 l -5.75131,0.13887 c -4.06039,0.0981 -5.81143,0.32001 -5.95582,0.75499 -0.14366,0.43275 0.46478,0.61611 2.04439,0.61611 h 2.2489 l 0.13343,21.56418 c 0.0734,11.8603 0.0521,22.06324 -0.0473,22.67321 -0.15584,0.95653 -0.48171,1.109 -2.37033,1.109 -1.33427,0 -2.07066,0.19255 -1.88504,0.4929 0.1818,0.29417 3.37324,0.4929 7.91543,0.4929 4.74526,0 7.61078,-0.18558 7.61078,-0.4929 z"
       style="fill:#ffffff;fill-opacity:1;stroke-width:0.49289554" />
  </g>
</svg>
